<svg width="32" height="32" viewBox="0 0 32 32" fill="none" xmlns="http://www.w3.org/2000/svg">
<g clip-path="url(#clip0_59922_5449)">
<path d="M32 16C32 24.8366 24.8366 32 16 32C7.16344 32 0 24.8366 0 16C0 7.16344 7.16344 0 16 0C24.8366 0 32 7.16344 32 16Z" fill="#D9D9D9"/>
<path d="M32 16C32 24.8366 24.8366 32 16 32C7.16344 32 0 24.8366 0 16C0 7.16344 7.16344 0 16 0C24.8366 0 32 7.16344 32 16Z" fill="url(#paint0_linear_59922_5449)"/>
<path d="M20.723 5.38135C10.7953 1.34532 1.34954 10.7627 5.30135 20.7567C6.2652 23.063 8.86761 25.7537 11.1809 26.6186C21.1086 30.6546 30.5544 21.2372 26.6026 11.2432C25.7351 8.93691 23.0363 6.34231 20.723 5.38135ZM19.6628 19.7958C19.47 19.7958 18.9881 19.7958 18.6989 19.6997C17.3495 19.5075 16.5785 19.1231 16.1929 18.3543C15.9038 17.6817 16.4821 16.8168 17.5423 16.4324C18.217 16.2402 18.6989 16.3363 19.1809 16.8168C19.6628 17.2012 20.0483 18.3543 20.0483 19.3153V19.7958H19.6628ZM25.0604 20.4684L24.8676 20.8528V19.988C24.8676 17.7777 24.4821 16.048 23.6146 14.4144C22.9399 13.1651 22.1688 12.2042 21.205 11.6276C20.2411 11.051 19.6628 10.8588 18.5062 10.8588C17.4459 10.8588 16.7712 10.8588 16.1929 11.1471C13.205 12.3003 11.3736 14.991 11.3736 18.3543C11.3736 19.6997 11.6628 20.6606 12.2411 21.7177C12.5303 22.1982 13.1086 22.8708 13.3977 23.1591C13.4941 23.2552 13.6869 23.4474 13.8797 23.5435C14.9399 24.4084 16.8676 25.0811 18.3134 25.0811C18.5062 25.0811 18.6989 25.0811 18.6989 25.1771C18.6989 25.2732 18.217 25.5615 17.8315 25.7537C17.1568 26.042 16.3857 26.2342 15.5182 26.1381C14.7471 26.042 13.6869 25.8498 12.9158 25.5615C10.0242 24.5045 7.6146 22.1021 6.65074 19.027C6.36159 18.1621 6.2652 17.5856 6.16882 16.7207C5.97605 14.6066 6.55436 12.5886 7.6146 10.6666C8.09653 9.89787 9.25315 8.55252 9.83146 8.07204C10.4098 7.59156 10.7953 7.39937 11.2772 7.11108C11.8556 6.7267 13.0122 6.24622 13.205 6.24622C13.3013 6.24622 13.3013 6.43841 13.3013 6.7267C13.3013 7.39937 13.5905 7.97595 14.1688 8.45643C14.7471 8.93691 15.1327 9.1291 15.9038 9.1291C16.6748 9.1291 17.1568 9.033 17.5423 8.64862C18.217 8.16814 18.5062 7.49547 18.6026 6.6306V6.15012H18.7953C19.0845 6.24622 20.1447 6.6306 20.5303 6.8228C22.1688 7.68766 23.4218 8.93691 24.3857 10.3783C26.1206 13.1651 26.5062 16.4324 25.3495 19.4114C25.3495 19.8919 25.1568 20.2762 25.0604 20.4684Z" fill="white"/>
</g>
<defs>
<linearGradient id="paint0_linear_59922_5449" x1="1.63113" y1="1.67563" x2="30.254" y2="30.3847" gradientUnits="userSpaceOnUse">
<stop stop-color="#EDA847"/>
<stop offset="1" stop-color="#F16B48"/>
</linearGradient>
<clipPath id="clip0_59922_5449">
<rect width="32" height="32" rx="16" fill="white"/>
</clipPath>
</defs>
</svg>
